<?xml version="1.0" encoding="UTF-8" standalone="no"?>
<svg
   version="1.0"
   width="512pt"
   height="512pt"
   viewBox="0 0 512 512"
   preserveAspectRatio="xMidYMid"
   id="svg6"
   sodipodi:docname="poya.svg"
   inkscape:version="1.2.2 (b0a8486541, 2022-12-01)"
   inkscape:export-filename="poya.png"
   inkscape:export-xdpi="72"
   inkscape:export-ydpi="72"
   xmlns:inkscape="http://www.inkscape.org/namespaces/inkscape"
   xmlns:sodipodi="http://sodipodi.sourceforge.net/DTD/sodipodi-0.dtd"
   xmlns="http://www.w3.org/2000/svg"
   xmlns:svg="http://www.w3.org/2000/svg">
  <defs
     id="defs10" />
  <sodipodi:namedview
     id="namedview8"
     pagecolor="#ffffff"
     bordercolor="#000000"
     borderopacity="0.25"
     inkscape:showpageshadow="2"
     inkscape:pageopacity="0.0"
     inkscape:pagecheckerboard="0"
     inkscape:deskcolor="#d1d1d1"
     inkscape:document-units="pt"
     showgrid="false"
     inkscape:zoom="0.74069435"
     inkscape:cx="496.15607"
     inkscape:cy="419.87629"
     inkscape:window-width="1920"
     inkscape:window-height="1008"
     inkscape:window-x="0"
     inkscape:window-y="0"
     inkscape:window-maximized="1"
     inkscape:current-layer="svg6" />
  <g
     transform="matrix(0.164246,0,0,-0.164246,-191.46562,748.66648)"
     fill="#000000"
     stroke="none"
     id="g4">
    <path
       d="m 2102,4549 c -136,-7 -364,-28 -370,-34 -1,-1 48,-12 110,-24 497,-96 821,-245 978,-449 98,-126 136,-241 128,-383 -9,-153 -65,-265 -201,-402 l -87,-89 -33,22 c -100,67 -205,94 -338,88 -77,-4 -104,-9 -146,-31 -29,-15 -53,-24 -53,-20 -1,5 -18,-10 -38,-33 -32,-34 -46,-42 -102,-53 -119,-23 -186,-62 -209,-122 l -9,-26 201,-7 c 124,-5 213,-12 232,-20 16,-7 56,-36 87,-65 113,-103 221,-270 382,-589 136,-268 253,-430 403,-556 82,-69 210,-150 255,-161 26,-7 27,-6 21,29 -3,20 -4,36 -1,36 2,0 28,-23 57,-51 57,-55 150,-103 220,-114 l 44,-7 -7,38 c -4,22 -9,47 -12,57 -4,13 10,7 56,-22 102,-66 248,-106 431,-117 58,-4 123,-4 144,0 l 38,7 -59,31 c -243,128 -522,385 -865,798 -169,202 -302,370 -298,374 2,2 29,16 59,31 147,73 285,207 383,370 34,58 97,202 97,223 0,6 -14,7 -37,1 -57,-13 -57,-13 -20,39 79,109 113,223 101,346 -4,39 -9,74 -11,79 -2,4 -25,-7 -50,-25 -32,-22 -44,-26 -40,-15 16,42 29,154 23,203 -3,30 -15,76 -25,103 -18,49 -98,171 -111,171 -4,0 -15,-18 -25,-40 -10,-22 -21,-40 -25,-40 -3,0 -14,24 -24,54 -9,30 -33,77 -54,104 -131,174 -380,266 -797,292 -174,11 -191,11 -403,-1 z m 108,-1379 c 0,-13 -7,-20 -19,-20 -41,0 -29,28 17,39 1,1 2,-8 2,-19 z"
       id="path2" />
  </g>
</svg>
